<svg xmlns="http://www.w3.org/2000/svg" xmlns:xlink="http://www.w3.org/1999/xlink" viewBox="0 0 162.22 88.92"><defs><style>.cls-1{fill:none;}.cls-2{clip-path:url(#clip-path);}.cls-3{fill:#cb9536;stroke:#171a54;stroke-miterlimit:10;stroke-width:4px;}</style><clipPath id="clip-path" transform="translate(3.52 -3.45)"><rect class="cls-1" x="33.94" y="-25.03" width="88.17" height="149.63" transform="translate(22.31 123.69) rotate(-85.53)"/></clipPath></defs><g id="Layer_2" data-name="Layer 2"><g id="Layer_1-2" data-name="Layer 1"><g class="cls-2"><path class="cls-3" d="M67.27,25.21,68.51,9.36l14.76,17.1,17-9.69L95.71,29.51l12.57-1.35L99,36.38l49.06,3.06-32,10.33L126.54,52,119.75,54l5.28,2-10.46,2.56L119.33,67,109.91,64l3.38,5.71-5.67-2.13,9.69,15-21-10,1.89,6.65-5.93-3.84-1,5.11-6.55-8.83-16.42,17L61.78,71.47,42.56,78.78,51.7,64.84l-24.07-1L39.06,51.54l-7.41-.45,5.58-4.49-21.47-.77,25.29-4.38L32.63,36,49.4,37.56l-7-8.59,8.86,2.51L39.18,8.75Z" transform="translate(3.52 -3.45)"/></g></g></g></svg>