<svg xmlns="http://www.w3.org/2000/svg" viewBox="0 0 29.45 41"><defs><style>.cls-1{fill:#672ca3;}</style></defs><g id="Layer_2" data-name="Layer 2"><g id="Layer_1-2" data-name="Layer 1"><path class="cls-1" d="M26.71,0H0V37H2.74v4l2.74-1.83L8.22,41V37H26.71a2.74,2.74,0,0,0,2.74-2.74V2.74A2.74,2.74,0,0,0,26.71,0ZM6.85,38.44l-1.37-.91-1.37.91V37H6.85ZM21.23,9.59v26H1.37V25.35H20.55V11.65H1.37V1.37H21.23Zm6.85,2.06H25.34v13.7h2.74v8.89a1.37,1.37,0,0,1-1.37,1.37H24.66V1.37h2.05a1.37,1.37,0,0,1,1.37,1.37Z"/></g></g></svg>