<svg xmlns="http://www.w3.org/2000/svg" xmlns:xlink="http://www.w3.org/1999/xlink" viewBox="0 0 131.3 94.86"><defs><style>.cls-1,.cls-4{fill:none;}.cls-2{clip-path:url(#clip-path);}.cls-3{fill:#cb9536;}.cls-4{stroke:#171a54;stroke-miterlimit:10;stroke-width:4px;}</style><clipPath id="clip-path" transform="translate(-3.73 1.71)"><rect class="cls-1" width="130" height="89"/></clipPath></defs><g id="Layer_2" data-name="Layer 2"><g id="Layer_1-2" data-name="Layer 1"><g class="cls-2"><path class="cls-3" d="M38.14,11.47C40.46,14.58,56.21,30.66,65,4.74c0,0,7.13,22.68,34,4.36,0,0-14.09,26.3,22.39,18.32,0,0-22.56,17.2,0,25.18,0,0-41-2.12-4.65,21.06,0,0-38.63-24-40.95,0,0,0-11.78-22.18-26.2,9.23,0,0,1.49-29.92-26-10.47,0,0,24.05-26.3-19.23-17,0,0,43.61-13.08,14.76-26,0,0,23.35,1.68,19.2-17.76" transform="translate(-3.73 1.71)"/><path class="cls-4" d="M38.14,11.47C40.46,14.58,56.21,30.66,65,4.74c0,0,7.13,22.68,34,4.36,0,0-14.09,26.3,22.39,18.32,0,0-22.56,17.2,0,25.18,0,0-41-2.12-4.65,21.06,0,0-38.63-24-40.95,0,0,0-11.78-22.18-26.2,9.23,0,0,1.49-29.92-26-10.47,0,0,24.05-26.3-19.23-17,0,0,43.61-13.08,14.76-26,0,0,23.35,1.68,19.2-17.76" transform="translate(-3.73 1.71)"/></g></g></g></svg>