<svg xmlns="http://www.w3.org/2000/svg" viewBox="0 0 42 42"><defs><style>.cls-1{fill:#672ca3;}</style></defs><g id="Layer_2" data-name="Layer 2"><g id="Layer_1-2" data-name="Layer 1"><path class="cls-1" d="M39.85,16.59l-3-.5a16.24,16.24,0,0,0-1.18-2.86l1.74-2.43a2.58,2.58,0,0,0-.29-3.34L34.56,4.84a2.58,2.58,0,0,0-3.33-.28L28.79,6.3a16.71,16.71,0,0,0-3-1.22l-.49-2.91A2.59,2.59,0,0,0,22.77,0h-3.7a2.59,2.59,0,0,0-2.56,2.17l-.51,3a16.55,16.55,0,0,0-2.85,1.2L10.74,4.61a2.63,2.63,0,0,0-1.51-.48A2.52,2.52,0,0,0,7.4,4.9L4.77,7.51a2.61,2.61,0,0,0-.28,3.34l1.76,2.47a15.86,15.86,0,0,0-1.17,2.87l-2.91.49A2.59,2.59,0,0,0,0,19.24v3.69A2.59,2.59,0,0,0,2.17,25.5l3,.51a16.88,16.88,0,0,0,1.2,2.85l-1.73,2.4A2.59,2.59,0,0,0,4.9,34.6l2.62,2.62a2.58,2.58,0,0,0,3.33.28l2.47-1.76a15.23,15.23,0,0,0,2.77,1.14l.49,2.95A2.59,2.59,0,0,0,19.14,42h3.71a2.59,2.59,0,0,0,2.56-2.17l.5-2.95a16.24,16.24,0,0,0,2.86-1.18l2.43,1.74a2.61,2.61,0,0,0,1.51.48,2.57,2.57,0,0,0,1.83-.76l2.62-2.62a2.61,2.61,0,0,0,.28-3.34L35.7,28.76a16.11,16.11,0,0,0,1.18-2.86l2.95-.49A2.59,2.59,0,0,0,42,22.85v-3.7A2.56,2.56,0,0,0,39.85,16.59Zm-.2,6.26a.22.22,0,0,1-.19.22l-3.69.62a1.19,1.19,0,0,0-1,.87,14,14,0,0,1-1.52,3.67,1.18,1.18,0,0,0,.05,1.29l2.17,3.06a.24.24,0,0,1,0,.3l-2.61,2.61a.25.25,0,0,1-.17.07.25.25,0,0,1-.13,0l-3-2.17a1.18,1.18,0,0,0-1.29-.05,14,14,0,0,1-3.67,1.52,1.17,1.17,0,0,0-.87,1l-.63,3.69a.22.22,0,0,1-.22.19h-3.7a.24.24,0,0,1-.23-.19l-.61-3.69a1.19,1.19,0,0,0-.87-1,14.59,14.59,0,0,1-3.6-1.47,1.14,1.14,0,0,0-.59-.16,1.18,1.18,0,0,0-.69.22L9.49,35.59a.21.21,0,0,1-.13,0,.27.27,0,0,1-.17-.07L6.58,33a.23.23,0,0,1,0-.29l2.16-3a1.2,1.2,0,0,0,0-1.3,13.94,13.94,0,0,1-1.54-3.67,1.21,1.21,0,0,0-1-.87l-3.71-.63a.22.22,0,0,1-.19-.23V19.24A.24.24,0,0,1,2.56,19l3.66-.61a1.19,1.19,0,0,0,1-.88,13.7,13.7,0,0,1,1.5-3.68,1.19,1.19,0,0,0-.06-1.28L6.43,9.48a.23.23,0,0,1,0-.29L9.07,6.57a.22.22,0,0,1,.17-.07.19.19,0,0,1,.13,0l3,2.15a1.2,1.2,0,0,0,1.3.06,13.9,13.9,0,0,1,3.66-1.55,1.19,1.19,0,0,0,.87-1l.63-3.71a.24.24,0,0,1,.23-.19h3.7a.22.22,0,0,1,.22.19l.62,3.66a1.19,1.19,0,0,0,.87,1,14.25,14.25,0,0,1,3.77,1.54,1.18,1.18,0,0,0,1.29-.05l3-2.18a.28.28,0,0,1,.13,0,.23.23,0,0,1,.16.07L35.5,9.12a.23.23,0,0,1,0,.3l-2.16,3.05a1.18,1.18,0,0,0,0,1.29,14,14,0,0,1,1.52,3.67,1.17,1.17,0,0,0,1,.87l3.68.62a.23.23,0,0,1,.2.23v3.7Z"/><path class="cls-1" d="M21,11.93A9.07,9.07,0,1,0,30.07,21,9.06,9.06,0,0,0,21,11.93Zm0,15.76A6.7,6.7,0,1,1,27.7,21,6.7,6.7,0,0,1,21,27.69Z"/></g></g></svg>